<svg id="theIcon" data-name="Layer 1" xmlns="http://www.w3.org/2000/svg" viewBox="0 0 782.58 682">

  <title>AST-icon-1</title>
  <path class="iconic" d="M553.59,60.33c69.41,7.11,127.78,36,163.1,86.71C785.52,245.93,745.56,397.64,630,520.2a108.1,108.1,0,0,1,33.55,31.48c123.62-130.42,166.21-292.62,92.91-397.93C714,92.84,640.14,62.07,553.59,60.33Zm-84.65,45.42a330.78,330.78,0,0,0-53.16,5.67c55-5.7,104.86,4.86,140.9,31A90.33,90.33,0,0,1,582.5,131C550.89,113.17,511.85,104.73,468.95,105.75Zm136.26,47.48a66.58,66.58,0,1,0,66.58,66.58A66.55,66.55,0,0,0,605.21,153.24ZM339.92,175.95c-3.05.18-5.89,2.62-6.71,7.23L322.88,227a100,100,0,0,1,35.1,0l-10.33-43.87c-1.34-5.35-4.68-7.4-7.74-7.23h0Zm261.16,0.51c-26.51,19.29-26.69,66,0,84.13-21.65,0-38.71-19-38.71-42.32S579.43,176.46,601.08,176.46ZM275.4,215.16c-3.24.45-5.77,3.37-5.68,8.26l1.55,29.42a102.75,102.75,0,0,1,33-20.65l-22.71-15c-2.17-1.54-4.25-2.33-6.19-2.06h0Zm129,0a13.17,13.17,0,0,0-4.65,2.06l-23.22,15a101,101,0,0,1,32.51,20.65l2.07-28.9C411.62,218.65,408.68,214.91,404.43,215.16Zm-64,23.23c-49.92,0-90.83,42-90.83,94.45s40.91,94.45,90.83,94.45,90.32-42,90.32-94.45S390.36,238.39,340.43,238.39Zm-129.55,12.9a6.86,6.86,0,0,0-6.71,3.61c-1.37,2.73-.48,6.28,3.09,9.29l35.61,34.07a110.29,110.29,0,0,1,17.55-33L214.5,251.81a13.54,13.54,0,0,0-3.61-.51h0Zm259.1,0a18.25,18.25,0,0,0-4.13.51l-45.42,13.94a106.19,106.19,0,0,1,17,32l35.61-33.55c6.27-5.26,4.63-13-3.09-12.9h0ZM337.86,264.2c-42.92,31.25-43.23,107.41,0,136.77-35,0-63-30.95-63-68.65S302.81,264.2,337.86,264.2Zm317.41,32c-14.43,9.49-31.5,15.48-50.06,15.48h-1c-19,67.16-70.41,137.43-146.57,190.45-133.71,93.06-292,97.16-353.54,8.77-14.62-21-22.07-45.63-23.75-71.74-2.29,37.27,5.62,72.15,25.8,101.16C172.85,636.19,344.59,632,489.59,531c93.26-64.91,152.76-154,165.68-234.83h0Zm-416,15.48-28.39,14.45c-6.42,3-7.36,9.65-.51,13.42L239.27,354a112.33,112.33,0,0,1-2.06-21.16,117,117,0,0,1,2.06-21.16h0Zm201.8,0a116.16,116.16,0,0,1,2.07,21.16A112.36,112.36,0,0,1,441.08,354l29.43-14.45c6.84-3.78,5.91-10.44-.52-13.42l-28.91-14.45h0ZM242.89,367.42l-35.61,34.07c-4,3.84-4.77,7.77-3.09,10.32s5.92,3.66,10.32,2.07l45.94-13.94A108,108,0,0,1,242.89,367.42Zm194.58,0a108.35,108.35,0,0,1-17,32.52l45.42,13.94c8.79,3.19,15.14-4.71,7.23-12.39Zm-166.19,44.9-1.55,29.94c-0.15,7.81,6.08,10.27,11.87,6.19L304.31,433a101.84,101.84,0,0,1-33-20.65h0Zm137.8,0A103.07,103.07,0,0,1,376,433l23.74,16c6.7,4,12-.21,11.36-7.23Zm-86.7,26.33,10.84,43.87c1.64,9.21,11.76,10.71,14.45,0L358,438.65a97.24,97.24,0,0,1-17.55,1.55A104.72,104.72,0,0,1,322.37,438.65ZM14.24,479.42C3.18,542.09,12.57,601.08,45.73,648.71c79.44,114.13,268.49,123.26,446.44,31A107.12,107.12,0,0,1,472,639.93c-168.86,89.3-349.32,81.56-424.77-26.84C20.68,574.89,10.3,528.72,14.24,479.42Zm561,55.22a77.94,77.94,0,1,0,77.93,77.93A77.95,77.95,0,0,0,575.27,534.64Zm-4.65,26.84c-31,22.56-31.22,77.38,0,98.58-25.31,0-45.42-22.32-45.42-49.54S545.31,561.48,570.62,561.48Z" transform="translate(-9.82 -60.33)"/>
</svg>
