<?xml version="1.0" encoding="utf-8"?>
<!-- Generator: Adobe Illustrator 18.1.1, SVG Export Plug-In . SVG Version: 6.00 Build 0)  -->
<!DOCTYPE svg PUBLIC "-//W3C//DTD SVG 1.1//EN" "http://www.w3.org/Graphics/SVG/1.1/DTD/svg11.dtd">
<svg version="1.1" id="Layer_1" xmlns="http://www.w3.org/2000/svg" xmlns:xlink="http://www.w3.org/1999/xlink" x="0px" y="0px"
	 viewBox="366 0 1139 1080" enable-background="new 366 0 1139 1080" xml:space="preserve">
<g id="Layer_2" display="none">
	<circle display="inline" fill="#FFFFFF" stroke="#4E4F45" stroke-width="15" stroke-miterlimit="10" cx="960" cy="540" r="479.5"/>
</g>
<g id="Layer_1_1_">
	<path fill="#FFFFFF" d="M1185.5,811.5c5.6,0,11.4-2.2,15.6-6.7c61.6-64.6,97-158.3,97-257.5s-35.4-192.9-97-257.5
		c-8.2-8.6-22-8.9-30.5-0.6c-8.6,8.2-8.9,21.8-0.6,30.5c54,56.6,84.9,139.5,84.9,227.7S1224,718.4,1169.7,775
		c-8.2,8.6-8,22.2,0.6,30.5C1174.7,809.6,1180.1,811.5,1185.5,811.5z"/>
	<path fill="#FFFFFF" d="M1113.8,744.8c5.4,0,10.8-2.2,15.1-6c48-46.9,75.6-116.6,75.6-191.4s-27.6-144.5-75.6-191.4
		c-8.6-8.4-22.2-8.2-30.5,0.4c-8.4,8.6-8.2,22.2,0.4,30.5c39.7,38.9,62.6,97.4,62.6,160.5s-22.9,121.6-62.6,160.5
		c-8.6,8.4-8.6,22-0.4,30.5C1102.6,742.6,1108.2,744.8,1113.8,744.8z"/>
	<path fill="#FFFFFF" d="M1028.7,638.7c-9.1,7.6-10.4,21.4-2.8,30.5c4.3,5.2,10.4,7.8,16.6,7.8c5,0,9.7-1.7,13.8-5
		c33.9-28.3,54.2-75,54.2-124.6c0-50.3-20.7-97.4-55.5-125.7c-9.3-7.6-22.9-6-30.5,3c-7.6,9.3-6,22.9,3,30.5
		c24.8,20.3,39.5,54.6,39.5,92.2C1067.6,584.3,1053.1,618.4,1028.7,638.7z"/>
	<path fill="#FFFFFF" d="M898,270.9L720.9,403.3h-92.4c-11.9,0-21.6,9.7-21.6,21.6v244.7c0,11.9,9.7,21.6,21.6,21.6h92.2
		l177.1,132.4c3.9,2.8,8.4,4.3,13,4.3c3.2,0,6.7-0.9,9.7-2.4c7.3-3.7,11.9-11.2,11.9-19.2V287.9c0-8.2-4.5-15.6-11.9-19.4
		C913.3,265.2,904.5,265.9,898,270.9z M889.4,763.3L741,652.3c-3.7-2.8-8.2-4.3-13-4.3h-78V446.5h78c4.8,0,9.3-1.5,13-4.3l148.4-111
		V763.3L889.4,763.3z"/>
</g>
</svg>
